# xmcd
#
# Track frame offsets:
#	150
#	12947
#	23550
#	33195
#	45800
#	56292
#	66565
#	76597
#	83690
#	93225
#	103272
#	113395
#	123520
#	138280
#	146952
#	158675
#	169805
#	180010
#	192370
#	205657
#	215547
#	225067
#	230880
#
# Disc length: 3190 seconds
#
# Revision: 1
# Processed by: cddbd v1.5.1PL0 Copyright (c) Steve Scherf et al.
# Submitted via: audiograbber 1.82.02
#
DISCID=170c7417
DTITLE=Blind Connie Williams - Traditional Blues, Spirituals and Folksongs
DYEAR=1900
DGENRE=Blues
TTITLE0=St.Louis Blues
TTITLE1=Careless Love
TTITLE2=Trouble In Mind
TTITLE3=Tell Me Why You Like Roosevelt
TTITLE4=See See Rider
TTITLE5=One Thin Dime
TTITLE6=Stop By The Woodside
TTITLE7=John Henry
TTITLE8=Crossed The Separated Line
TTITLE9=I Can See Everybody's Mother
TTITLE10=Will The Circle Be Unbroken
TTITLE11=Take Your Burden To The Lord
TTITLE12=Oh, What A Time
TTITLE13=Mother Left Me Standing On The Highway
TTITLE14=Through The Years I Keep On Toiling
TTITLE15=Motherless Children
TTITLE16=I Shall Not Be Moved
TTITLE17=Milky White Way
TTITLE18=Gonna Talk For My Savior
TTITLE19=When The Saints Go Marching In
TTITLE20=He Watches Down Over Me
TTITLE21=I'll Fly Away
TTITLE22=He's The Lilly Of The Valley
EXTD=
EXTT0=
EXTT1=
EXTT2=
EXTT3=
EXTT4=
EXTT5=
EXTT6=
EXTT7=
EXTT8=
EXTT9=
EXTT10=
EXTT11=
EXTT12=
EXTT13=
EXTT14=
EXTT15=
EXTT16=
EXTT17=
EXTT18=
EXTT19=
EXTT20=
EXTT21=
EXTT22=
PLAYORDER=
